<svg xmlns="http://www.w3.org/2000/svg" viewBox="0 0 1200 900" role="img" aria-labelledby="raven-title raven-desc">
  <title id="raven-title">Raven placeholder illustration</title>
  <desc id="raven-desc">Placeholder artwork for the Raven sleep animal.</desc>
  <defs>
    <linearGradient id="bg" x1="0%" x2="100%" y1="0%" y2="100%">
      <stop offset="0%" stop-color="#081c34" />
      <stop offset="45%" stop-color="#0d3456" />
      <stop offset="100%" stop-color="#14233f" />
    </linearGradient>
    <radialGradient id="glow" cx="50%" cy="35%" r="60%">
      <stop offset="0%" stop-color="#f5d7b5" stop-opacity="0.85" />
      <stop offset="100%" stop-color="#f5d7b5" stop-opacity="0" />
    </radialGradient>
  </defs>
  <rect width="1200" height="900" fill="url(#bg)" />
  <circle cx="820" cy="200" r="230" fill="url(#glow)" />
  <circle cx="195" cy="135" r="3" fill="#fff2dd" />
  <circle cx="345" cy="205" r="4" fill="#fff2dd" />
  <circle cx="900" cy="130" r="3.5" fill="#fff2dd" />
  <circle cx="1020" cy="260" r="4" fill="#fff2dd" />
  <circle cx="103" cy="320" r="3.5" fill="#fff2dd" />
  <circle cx="270" cy="100" r="2.8" fill="#fff2dd" />
  <circle cx="420" cy="155" r="2.4" fill="#fff2dd" />
  <path d="M0 690 C160 640 250 700 390 650 C550 595 670 730 820 665 C935 615 1070 660 1200 610 L1200 900 L0 900 Z" fill="#0a1730" />
  <path d="M0 745 C150 695 310 780 480 715 C640 660 760 805 915 730 C1040 670 1120 700 1200 675 L1200 900 L0 900 Z" fill="#081225" opacity="0.9" />
  <circle cx="600" cy="410" r="122" fill="none" stroke="#f4c49b" stroke-opacity="0.92" stroke-width="6" />
  <text x="600" y="428" fill="#fff8ef" font-family="Avenir Next, Trebuchet MS, Segoe UI, sans-serif" font-size="84" font-weight="700" text-anchor="middle">Raven</text>
  <text x="600" y="520" fill="#f0c9b3" font-family="Avenir Next, Trebuchet MS, Segoe UI, sans-serif" font-size="34" font-weight="600" text-anchor="middle">Cognitive Marathoner</text>
  <text x="600" y="588" fill="#b9cfdd" font-family="Avenir Next, Trebuchet MS, Segoe UI, sans-serif" font-size="26" text-anchor="middle">Sleep animal illustration placeholder</text>
</svg>
